# Blender v2.77 (sub 0) OBJ File: 'robot.blend'
# www.blender.org
mtllib robot.mtl

v 0.0 -13.35366 -15.0 
v 2.92635 -13.35366 -14.711775 
v 5.740245 -13.35366 -13.8582 
v 8.33355 -13.35366 -12.47205 
v 10.606605 -13.35366 -10.606605 
v 12.47205 -13.35366 -8.33355 
v 13.8582 -13.35366 -5.740245 
v 14.711775 -13.35366 -2.92635 
v 15.0 -13.35366 -0.0 
v 14.711775 -13.35366 2.92635 
v 13.8582 -13.35366 5.740245 
v 12.47205 -13.35366 8.33355 
v 10.606605 -13.35366 10.606605 
v 8.33355 -13.35366 12.47205 
v 5.740245 -13.35366 13.8582 
v 2.92635 -13.35366 14.711775 
v -0.0 -13.35366 15.0 
v -2.926365 -13.35366 14.711775 
v -5.74026 -13.35366 13.858185 
v -8.333565 -13.35366 12.472035 
v -10.606605 -13.35366 10.60659 
v -12.47205 -13.35366 8.33355 
v -13.8582 -13.35366 5.740245 
v -14.711775 -13.35366 2.926335 
v -15.0 -13.35366 1.5e-05 
v -14.711775 -13.35366 -2.926365 
v -13.858185 -13.35366 -5.74026 
v -12.472035 -13.35366 -8.333565 
v -10.60659 -13.35366 -10.60662 
v -8.333535 -13.35366 -12.47205 
v -5.74023 -13.35366 -13.8582 
v -2.926335 -13.35366 -14.71179 
v 5e-06 36.43764 -15.0 
v 2.92638 36.43764 -14.711775 
v 5.740275 36.43764 -13.858185 
v 8.33358 36.43764 -12.472035 
v 10.60662 36.43764 -10.606575 
v 12.472065 36.43764 -8.333535 
v 13.8582 36.43764 -5.74023 
v 14.71179 36.43764 -2.92632 
v 15.0 36.43764 3e-05 
v 14.711775 36.43764 2.92638 
v 13.858185 36.43764 5.740275 
v 12.472035 36.43764 8.333565 
v 10.60659 36.43764 10.606605 
v 8.33355 36.43764 12.47205 
v 5.74026 36.43764 13.8582 
v 2.926365 36.43764 14.711775 
v 1.5e-05 36.43764 15.0 
v -2.926335 36.43764 14.71179 
v -5.74023 36.43764 13.8582 
v -8.33352 36.43764 12.472065 
v -10.606575 36.43764 10.606635 
v -12.47202 36.43764 8.333595 
v -13.85817 36.43764 5.74029 
v -14.711775 36.43764 2.92641 
v -15.0 36.43764 6e-05 
v -14.71179 36.43764 -2.92629 
v -13.858215 36.43764 -5.740185 
v -12.472095 36.43764 -8.33349 
v -10.606665 36.43764 -10.606545 
v -8.333625 36.43764 -12.47199 
v -5.740335 36.43764 -13.858155 
v -2.926455 36.43764 -14.71176 
v 0.0 36.43764 0.0 
vt 0.4712 0.7485
vt 0.3762 0.9264
vt 0.3433 0.9044
vt 0.4127 0.9415
vt 0.4515 0.9492
vt 0.4910 0.9492
vt 0.5298 0.9415
vt 0.5663 0.9264
vt 0.5992 0.9044
vt 0.6272 0.8764
vt 0.6491 0.8436
vt 0.6643 0.8070
vt 0.6720 0.7683
vt 0.6720 0.7287
vt 0.6643 0.6899
vt 0.6491 0.6534
vt 0.6272 0.6205
vt 0.5992 0.5926
vt 0.5663 0.5706
vt 0.5298 0.5555
vt 0.4910 0.5478
vt 0.4515 0.5478
vt 0.4127 0.5555
vt 0.3762 0.5706
vt 0.3433 0.5926
vt 0.3153 0.6205
vt 0.2934 0.6534
vt 0.2782 0.6899
vt 0.2705 0.7287
vt 0.2705 0.7683
vt 0.2782 0.8070
vt 0.2934 0.8436
vt 0.3153 0.8764
vt 0.9904 0.4756
vt 0.9293 0.0113
vt 0.9904 0.0095
vt 0.9293 0.4773
vt 0.8681 0.0131
vt 0.8681 0.4791
vt 0.8070 0.0148
vt 0.8070 0.4809
vt 0.7459 0.0166
vt 0.7459 0.4827
vt 0.6848 0.0184
vt 0.6848 0.4844
vt 0.6236 0.0201
vt 0.6236 0.4862
vt 0.5625 0.0219
vt 0.5625 0.4880
vt 0.5014 0.0237
vt 0.5014 0.4898
vt 0.4403 0.0255
vt 0.4403 0.4915
vt 0.3791 0.0272
vt 0.3791 0.4933
vt 0.3180 0.0290
vt 0.3180 0.4951
vt 0.2569 0.0308
vt 0.2569 0.4968
vt 0.1958 0.0288
vt 0.1958 0.4948
vt 0.1348 0.0267
vt 0.1348 0.4928
vt 0.0737 0.0247
vt 0.0737 0.4908
vt 0.0127 0.0227
vt 0.9948 0.4939
vt 0.9201 0.0278
vt 0.9812 0.0281
vt 0.9337 0.4937
vt 0.8590 0.0276
vt 0.8726 0.4935
vt 0.7979 0.0274
vt 0.8115 0.4932
vt 0.7368 0.0271
vt 0.6894 0.4927
vt 0.6757 0.0269
vt 0.6146 0.0267
vt 0.5672 0.4923
vt 0.5536 0.0264
vt 0.5061 0.4920
vt 0.4925 0.0262
vt 0.4450 0.4918
vt 0.4314 0.0259
vt 0.3839 0.4916
vt 0.3703 0.0257
vt 0.3228 0.4913
vt 0.3092 0.0255
vt 0.2617 0.4911
vt 0.2481 0.0252
vt 0.2006 0.4909
vt 0.1870 0.0250
vt 0.1396 0.4906
vt 0.1259 0.0248
vt 0.0785 0.4904
vt 0.0648 0.0245
vt 0.0174 0.4901
vt 0.0127 0.4887
vt 0.7505 0.4930
vt 0.6283 0.4925
vt 0.0037 0.0243
vn 0.0000 1.0000 0.0000
vn 0.0980 -0.0000 -0.9952
vn 0.2903 -0.0000 -0.9569
vn 0.4714 -0.0000 -0.8819
vn 0.6344 -0.0000 -0.7730
vn 0.7730 -0.0000 -0.6344
vn 0.8819 -0.0000 -0.4714
vn 0.9569 -0.0000 -0.2903
vn 0.9952 -0.0000 -0.0980
vn 0.9952 -0.0000 0.0980
vn 0.9569 -0.0000 0.2903
vn 0.8819 -0.0000 0.4714
vn 0.7730 -0.0000 0.6344
vn 0.6344 -0.0000 0.7730
vn 0.4714 -0.0000 0.8819
vn 0.2903 0.0000 0.9569
vn 0.0980 0.0000 0.9952
vn -0.0980 0.0000 0.9952
vn -0.2903 0.0000 0.9569
vn -0.4714 0.0000 0.8819
vn -0.6344 0.0000 0.7730
vn -0.7730 -0.0000 0.6344
vn -0.8819 0.0000 0.4714
vn -0.9569 -0.0000 0.2903
vn -0.9952 -0.0000 0.0980
vn -0.9952 -0.0000 -0.0980
vn -0.9569 -0.0000 -0.2903
vn -0.8819 -0.0000 -0.4714
vn -0.7730 -0.0000 -0.6344
vn -0.6344 -0.0000 -0.7730
vn -0.4714 -0.0000 -0.8819
vn -0.2903 -0.0000 -0.9569
vn -0.0980 0.0000 -0.9952
usemtl robot.png
s off
f 65/1/1 34/2/1 33/3/1
f 65/1/1 35/4/1 34/2/1
f 65/1/1 36/5/1 35/4/1
f 65/1/1 37/6/1 36/5/1
f 65/1/1 38/7/1 37/6/1
f 65/1/1 39/8/1 38/7/1
f 65/1/1 40/9/1 39/8/1
f 65/1/1 41/10/1 40/9/1
f 65/1/1 42/11/1 41/10/1
f 65/1/1 43/12/1 42/11/1
f 65/1/1 44/13/1 43/12/1
f 65/1/1 45/14/1 44/13/1
f 65/1/1 46/15/1 45/14/1
f 65/1/1 47/16/1 46/15/1
f 65/1/1 48/17/1 47/16/1
f 65/1/1 49/18/1 48/17/1
f 65/1/1 50/19/1 49/18/1
f 65/1/1 51/20/1 50/19/1
f 65/1/1 52/21/1 51/20/1
f 65/1/1 53/22/1 52/21/1
f 65/1/1 54/23/1 53/22/1
f 65/1/1 55/24/1 54/23/1
f 65/1/1 56/25/1 55/24/1
f 65/1/1 57/26/1 56/25/1
f 65/1/1 58/27/1 57/26/1
f 65/1/1 59/28/1 58/27/1
f 65/1/1 60/29/1 59/28/1
f 65/1/1 61/30/1 60/29/1
f 65/1/1 62/31/1 61/30/1
f 65/1/1 63/32/1 62/31/1
f 65/1/1 64/33/1 63/32/1
f 65/1/1 33/3/1 64/33/1
f 33/34/2 2/35/2 1/36/2
f 34/37/3 3/38/3 2/35/3
f 35/39/4 4/40/4 3/38/4
f 36/41/5 5/42/5 4/40/5
f 37/43/6 6/44/6 5/42/6
f 38/45/7 7/46/7 6/44/7
f 39/47/8 8/48/8 7/46/8
f 40/49/9 9/50/9 8/48/9
f 41/51/10 10/52/10 9/50/10
f 42/53/11 11/54/11 10/52/11
f 43/55/12 12/56/12 11/54/12
f 44/57/13 13/58/13 12/56/13
f 45/59/14 14/60/14 13/58/14
f 46/61/15 15/62/15 14/60/15
f 47/63/16 16/64/16 15/62/16
f 48/65/17 17/66/17 16/64/17
f 49/67/18 18/68/18 17/69/18
f 50/70/19 19/71/19 18/68/19
f 51/72/20 20/73/20 19/71/20
f 52/74/21 21/75/21 20/73/21
f 21/75/22 54/76/22 22/77/22
f 54/76/23 23/78/23 22/77/23
f 23/78/24 56/79/24 24/80/24
f 24/80/25 57/81/25 25/82/25
f 25/82/26 58/83/26 26/84/26
f 26/84/27 59/85/27 27/86/27
f 27/86/28 60/87/28 28/88/28
f 28/88/29 61/89/29 29/90/29
f 29/90/30 62/91/30 30/92/30
f 30/92/31 63/93/31 31/94/31
f 31/94/32 64/95/32 32/96/32
f 33/97/33 32/96/33 64/95/33
f 33/34/2 34/37/2 2/35/2
f 34/37/3 35/39/3 3/38/3
f 35/39/4 36/41/4 4/40/4
f 36/41/5 37/43/5 5/42/5
f 37/43/6 38/45/6 6/44/6
f 38/45/7 39/47/7 7/46/7
f 39/47/8 40/49/8 8/48/8
f 40/49/9 41/51/9 9/50/9
f 41/51/10 42/53/10 10/52/10
f 42/53/11 43/55/11 11/54/11
f 43/55/12 44/57/12 12/56/12
f 44/57/13 45/59/13 13/58/13
f 45/59/14 46/61/14 14/60/14
f 46/61/15 47/63/15 15/62/15
f 47/63/16 48/65/16 16/64/16
f 48/65/17 49/98/17 17/66/17
f 49/67/18 50/70/18 18/68/18
f 50/70/19 51/72/19 19/71/19
f 51/72/20 52/74/20 20/73/20
f 52/74/21 53/99/21 21/75/21
f 21/75/22 53/99/22 54/76/22
f 54/76/23 55/100/23 23/78/23
f 23/78/24 55/100/24 56/79/24
f 24/80/25 56/79/25 57/81/25
f 25/82/26 57/81/26 58/83/26
f 26/84/27 58/83/27 59/85/27
f 27/86/28 59/85/28 60/87/28
f 28/88/29 60/87/29 61/89/29
f 29/90/30 61/89/30 62/91/30
f 30/92/31 62/91/31 63/93/31
f 31/94/32 63/93/32 64/95/32
f 33/97/33 1/101/33 32/96/33
