# Blender v2.77 (sub 0) OBJ File: 'robot.blend'
# www.blender.org
mtllib robot.mtl

v 0.0 -2.670732 -3.0 
v 0.58527 -2.670732 -2.942355 
v 1.148049 -2.670732 -2.77164 
v 1.66671 -2.670732 -2.49441 
v 2.121321 -2.670732 -2.121321 
v 2.49441 -2.670732 -1.66671 
v 2.77164 -2.670732 -1.148049 
v 2.942355 -2.670732 -0.58527 
v 3.0 -2.670732 -0.0 
v 2.942355 -2.670732 0.58527 
v 2.77164 -2.670732 1.148049 
v 2.49441 -2.670732 1.66671 
v 2.121321 -2.670732 2.121321 
v 1.66671 -2.670732 2.49441 
v 1.148049 -2.670732 2.77164 
v 0.58527 -2.670732 2.942355 
v -0.0 -2.670732 3.0 
v -0.585273 -2.670732 2.942355 
v -1.148052 -2.670732 2.771637 
v -1.666713 -2.670732 2.494407 
v -2.121321 -2.670732 2.121318 
v -2.49441 -2.670732 1.66671 
v -2.77164 -2.670732 1.148049 
v -2.942355 -2.670732 0.585267 
v -3.0 -2.670732 0.000003 
v -2.942355 -2.670732 -0.585273 
v -2.771637 -2.670732 -1.148052 
v -2.494407 -2.670732 -1.666713 
v -2.121318 -2.670732 -2.121324 
v -1.666707 -2.670732 -2.49441 
v -1.148046 -2.670732 -2.77164 
v -0.585267 -2.670732 -2.942358 
v 0.000001 7.287528 -3.0 
v 0.585276 7.287528 -2.942355 
v 1.148055 7.287528 -2.771637 
v 1.666716 7.287528 -2.494407 
v 2.121324 7.287528 -2.121315 
v 2.494413 7.287528 -1.666707 
v 2.77164 7.287528 -1.148046 
v 2.942358 7.287528 -0.585264 
v 3.0 7.287528 0.000006 
v 2.942355 7.287528 0.585276 
v 2.771637 7.287528 1.148055 
v 2.494407 7.287528 1.666713 
v 2.121318 7.287528 2.121321 
v 1.66671 7.287528 2.49441 
v 1.148052 7.287528 2.77164 
v 0.585273 7.287528 2.942355 
v 0.000003 7.287528 3.0 
v -0.585267 7.287528 2.942358 
v -1.148046 7.287528 2.77164 
v -1.666704 7.287528 2.494413 
v -2.121315 7.287528 2.121327 
v -2.494404 7.287528 1.666719 
v -2.771634 7.287528 1.148058 
v -2.942355 7.287528 0.585282 
v -3.0 7.287528 1.2e-05 
v -2.942358 7.287528 -0.585258 
v -2.771643 7.287528 -1.148037 
v -2.494419 7.287528 -1.666698 
v -2.121333 7.287528 -2.121309 
v -1.666725 7.287528 -2.494398 
v -1.148067 7.287528 -2.771631 
v -0.585291 7.287528 -2.942352 
v 0.0 7.287528 0.0 
vt 0.4712 0.7485
vt 0.3762 0.9264
vt 0.3433 0.9044
vt 0.4127 0.9415
vt 0.4515 0.9492
vt 0.4910 0.9492
vt 0.5298 0.9415
vt 0.5663 0.9264
vt 0.5992 0.9044
vt 0.6272 0.8764
vt 0.6491 0.8436
vt 0.6643 0.8070
vt 0.6720 0.7683
vt 0.6720 0.7287
vt 0.6643 0.6899
vt 0.6491 0.6534
vt 0.6272 0.6205
vt 0.5992 0.5926
vt 0.5663 0.5706
vt 0.5298 0.5555
vt 0.4910 0.5478
vt 0.4515 0.5478
vt 0.4127 0.5555
vt 0.3762 0.5706
vt 0.3433 0.5926
vt 0.3153 0.6205
vt 0.2934 0.6534
vt 0.2782 0.6899
vt 0.2705 0.7287
vt 0.2705 0.7683
vt 0.2782 0.8070
vt 0.2934 0.8436
vt 0.3153 0.8764
vt 0.9904 0.4756
vt 0.9293 0.0113
vt 0.9904 0.0095
vt 0.9293 0.4773
vt 0.8681 0.0131
vt 0.8681 0.4791
vt 0.8070 0.0148
vt 0.8070 0.4809
vt 0.7459 0.0166
vt 0.7459 0.4827
vt 0.6848 0.0184
vt 0.6848 0.4844
vt 0.6236 0.0201
vt 0.6236 0.4862
vt 0.5625 0.0219
vt 0.5625 0.4880
vt 0.5014 0.0237
vt 0.5014 0.4898
vt 0.4403 0.0255
vt 0.4403 0.4915
vt 0.3791 0.0272
vt 0.3791 0.4933
vt 0.3180 0.0290
vt 0.3180 0.4951
vt 0.2569 0.0308
vt 0.2569 0.4968
vt 0.1958 0.0288
vt 0.1958 0.4948
vt 0.1348 0.0267
vt 0.1348 0.4928
vt 0.0737 0.0247
vt 0.0737 0.4908
vt 0.0127 0.0227
vt 0.9948 0.4939
vt 0.9201 0.0278
vt 0.9812 0.0281
vt 0.9337 0.4937
vt 0.8590 0.0276
vt 0.8726 0.4935
vt 0.7979 0.0274
vt 0.8115 0.4932
vt 0.7368 0.0271
vt 0.6894 0.4927
vt 0.6757 0.0269
vt 0.6146 0.0267
vt 0.5672 0.4923
vt 0.5536 0.0264
vt 0.5061 0.4920
vt 0.4925 0.0262
vt 0.4450 0.4918
vt 0.4314 0.0259
vt 0.3839 0.4916
vt 0.3703 0.0257
vt 0.3228 0.4913
vt 0.3092 0.0255
vt 0.2617 0.4911
vt 0.2481 0.0252
vt 0.2006 0.4909
vt 0.1870 0.0250
vt 0.1396 0.4906
vt 0.1259 0.0248
vt 0.0785 0.4904
vt 0.0648 0.0245
vt 0.0174 0.4901
vt 0.0127 0.4887
vt 0.7505 0.4930
vt 0.6283 0.4925
vt 0.0037 0.0243
vn 0.0000 1.0000 0.0000
vn 0.0980 -0.0000 -0.9952
vn 0.2903 -0.0000 -0.9569
vn 0.4714 -0.0000 -0.8819
vn 0.6344 -0.0000 -0.7730
vn 0.7730 -0.0000 -0.6344
vn 0.8819 -0.0000 -0.4714
vn 0.9569 -0.0000 -0.2903
vn 0.9952 -0.0000 -0.0980
vn 0.9952 -0.0000 0.0980
vn 0.9569 -0.0000 0.2903
vn 0.8819 -0.0000 0.4714
vn 0.7730 -0.0000 0.6344
vn 0.6344 -0.0000 0.7730
vn 0.4714 -0.0000 0.8819
vn 0.2903 0.0000 0.9569
vn 0.0980 0.0000 0.9952
vn -0.0980 0.0000 0.9952
vn -0.2903 0.0000 0.9569
vn -0.4714 0.0000 0.8819
vn -0.6344 0.0000 0.7730
vn -0.7730 -0.0000 0.6344
vn -0.8819 0.0000 0.4714
vn -0.9569 -0.0000 0.2903
vn -0.9952 -0.0000 0.0980
vn -0.9952 -0.0000 -0.0980
vn -0.9569 -0.0000 -0.2903
vn -0.8819 -0.0000 -0.4714
vn -0.7730 -0.0000 -0.6344
vn -0.6344 -0.0000 -0.7730
vn -0.4714 -0.0000 -0.8819
vn -0.2903 -0.0000 -0.9569
vn -0.0980 0.0000 -0.9952
usemtl robot.png
s off
f 65/1/1 34/2/1 33/3/1
f 65/1/1 35/4/1 34/2/1
f 65/1/1 36/5/1 35/4/1
f 65/1/1 37/6/1 36/5/1
f 65/1/1 38/7/1 37/6/1
f 65/1/1 39/8/1 38/7/1
f 65/1/1 40/9/1 39/8/1
f 65/1/1 41/10/1 40/9/1
f 65/1/1 42/11/1 41/10/1
f 65/1/1 43/12/1 42/11/1
f 65/1/1 44/13/1 43/12/1
f 65/1/1 45/14/1 44/13/1
f 65/1/1 46/15/1 45/14/1
f 65/1/1 47/16/1 46/15/1
f 65/1/1 48/17/1 47/16/1
f 65/1/1 49/18/1 48/17/1
f 65/1/1 50/19/1 49/18/1
f 65/1/1 51/20/1 50/19/1
f 65/1/1 52/21/1 51/20/1
f 65/1/1 53/22/1 52/21/1
f 65/1/1 54/23/1 53/22/1
f 65/1/1 55/24/1 54/23/1
f 65/1/1 56/25/1 55/24/1
f 65/1/1 57/26/1 56/25/1
f 65/1/1 58/27/1 57/26/1
f 65/1/1 59/28/1 58/27/1
f 65/1/1 60/29/1 59/28/1
f 65/1/1 61/30/1 60/29/1
f 65/1/1 62/31/1 61/30/1
f 65/1/1 63/32/1 62/31/1
f 65/1/1 64/33/1 63/32/1
f 65/1/1 33/3/1 64/33/1
f 33/34/2 2/35/2 1/36/2
f 34/37/3 3/38/3 2/35/3
f 35/39/4 4/40/4 3/38/4
f 36/41/5 5/42/5 4/40/5
f 37/43/6 6/44/6 5/42/6
f 38/45/7 7/46/7 6/44/7
f 39/47/8 8/48/8 7/46/8
f 40/49/9 9/50/9 8/48/9
f 41/51/10 10/52/10 9/50/10
f 42/53/11 11/54/11 10/52/11
f 43/55/12 12/56/12 11/54/12
f 44/57/13 13/58/13 12/56/13
f 45/59/14 14/60/14 13/58/14
f 46/61/15 15/62/15 14/60/15
f 47/63/16 16/64/16 15/62/16
f 48/65/17 17/66/17 16/64/17
f 49/67/18 18/68/18 17/69/18
f 50/70/19 19/71/19 18/68/19
f 51/72/20 20/73/20 19/71/20
f 52/74/21 21/75/21 20/73/21
f 21/75/22 54/76/22 22/77/22
f 54/76/23 23/78/23 22/77/23
f 23/78/24 56/79/24 24/80/24
f 24/80/25 57/81/25 25/82/25
f 25/82/26 58/83/26 26/84/26
f 26/84/27 59/85/27 27/86/27
f 27/86/28 60/87/28 28/88/28
f 28/88/29 61/89/29 29/90/29
f 29/90/30 62/91/30 30/92/30
f 30/92/31 63/93/31 31/94/31
f 31/94/32 64/95/32 32/96/32
f 33/97/33 32/96/33 64/95/33
f 33/34/2 34/37/2 2/35/2
f 34/37/3 35/39/3 3/38/3
f 35/39/4 36/41/4 4/40/4
f 36/41/5 37/43/5 5/42/5
f 37/43/6 38/45/6 6/44/6
f 38/45/7 39/47/7 7/46/7
f 39/47/8 40/49/8 8/48/8
f 40/49/9 41/51/9 9/50/9
f 41/51/10 42/53/10 10/52/10
f 42/53/11 43/55/11 11/54/11
f 43/55/12 44/57/12 12/56/12
f 44/57/13 45/59/13 13/58/13
f 45/59/14 46/61/14 14/60/14
f 46/61/15 47/63/15 15/62/15
f 47/63/16 48/65/16 16/64/16
f 48/65/17 49/98/17 17/66/17
f 49/67/18 50/70/18 18/68/18
f 50/70/19 51/72/19 19/71/19
f 51/72/20 52/74/20 20/73/20
f 52/74/21 53/99/21 21/75/21
f 21/75/22 53/99/22 54/76/22
f 54/76/23 55/100/23 23/78/23
f 23/78/24 55/100/24 56/79/24
f 24/80/25 56/79/25 57/81/25
f 25/82/26 57/81/26 58/83/26
f 26/84/27 58/83/27 59/85/27
f 27/86/28 59/85/28 60/87/28
f 28/88/29 60/87/29 61/89/29
f 29/90/30 61/89/30 62/91/30
f 30/92/31 62/91/31 63/93/31
f 31/94/32 63/93/32 64/95/32
f 33/97/33 1/101/33 32/96/33
